<svg width="127" height="120" viewBox="0 0 127 120" fill="none" xmlns="http://www.w3.org/2000/svg">
<g filter="url(#filter0_d_2_26)">
<path fill-rule="evenodd" clip-rule="evenodd" d="M96.9141 64.5925H100.417C102.169 64.5925 103.599 66.0164 103.599 67.7594V69.2324C103.599 86.5892 88.5761 100.534 70.7899 98.8642C55.2733 97.4158 43.753 83.8397 43.753 68.3486V67.4648C34.3049 65.7709 18.2702 58.0622 16.0253 25.7545C15.828 23.0049 16.79 20.3535 18.7142 18.3159C20.7124 16.18 23.574 14.9525 26.5835 14.9525H28.0883C29.6918 12.5712 32.4054 11 35.489 11C40.398 11 44.3944 14.9525 44.3944 19.8625C44.3944 24.7725 40.398 28.725 35.489 28.725C32.4054 28.725 29.6918 27.1539 28.0883 24.7725H26.5835C26.1148 24.7725 25.8928 25.0426 25.8681 25.1162C27.3236 46.0819 35.637 58.1359 48.6867 58.1359C61.7365 58.1359 70.0499 46.0819 71.5053 25.0917C71.5053 25.0426 71.2586 24.7725 70.7899 24.7725H70.0252C68.4217 27.1539 65.7082 28.725 62.6246 28.725C57.6908 28.725 53.7192 24.7725 53.7192 19.8625C53.7192 14.9525 57.7155 11 62.6246 11C65.7082 11 68.4217 12.5712 70.0252 14.9525H70.8146C73.7995 14.9525 76.6858 16.18 78.6839 18.3159C80.6081 20.3781 81.5702 23.0295 81.3728 25.7791C79.1526 58.0622 63.0933 65.7709 53.6451 67.4894V68.545C53.6451 79.1506 61.6872 88.4305 72.3194 89.1424C83.9877 89.9035 93.7319 80.6973 93.7319 69.2324V67.7594C93.7319 66.0164 95.1626 64.5925 96.9141 64.5925ZM98.6656 31.1309C105.326 31.1309 110.729 35.329 110.951 40.6072H111V43.4059C111 47.2111 108.212 50.5008 104.216 52.1211L104.216 52.1212C104.265 52.293 104.315 52.4649 104.315 52.6612H104.339V53.9378C104.339 56.4419 101.799 58.455 98.6656 58.455C95.5327 58.455 92.9918 56.4419 92.9918 53.9378V52.6612H93.0165C93.0288 52.5753 93.0473 52.4832 93.0658 52.3911C93.0843 52.2991 93.1028 52.207 93.1152 52.1211C89.0942 50.5008 86.3313 47.2357 86.3313 43.4059V40.6072H86.3806C86.6026 35.3535 92.0051 31.1309 98.6656 31.1309ZM93.7319 40.9509C93.7319 43.1113 95.9521 44.8789 98.6656 44.8789C101.379 44.8789 103.599 43.1113 103.599 40.9509C103.599 38.7905 101.379 37.0229 98.6656 37.0229C95.9521 37.0229 93.7319 38.7905 93.7319 40.9509Z" fill="#0067B9"/>
</g>
<defs>
<filter id="filter0_d_2_26" x="0" y="0" width="127" height="120" filterUnits="userSpaceOnUse" color-interpolation-filters="sRGB">
<feFlood flood-opacity="0" result="BackgroundImageFix"/>
<feColorMatrix in="SourceAlpha" type="matrix" values="0 0 0 0 0 0 0 0 0 0 0 0 0 0 0 0 0 0 127 0" result="hardAlpha"/>
<feOffset dy="5"/>
<feGaussianBlur stdDeviation="8"/>
<feComposite in2="hardAlpha" operator="out"/>
<feColorMatrix type="matrix" values="0 0 0 0 0 0 0 0 0 0 0 0 0 0 0 0 0 0 0.2 0"/>
<feBlend mode="normal" in2="BackgroundImageFix" result="effect1_dropShadow_2_26"/>
<feBlend mode="normal" in="SourceGraphic" in2="effect1_dropShadow_2_26" result="shape"/>
</filter>
</defs>
</svg>
