<svg width="135" height="121" viewBox="0 0 135 121" fill="none" xmlns="http://www.w3.org/2000/svg">
<g filter="url(#filter0_d_2_32)">
<path fill-rule="evenodd" clip-rule="evenodd" d="M40.5424 11.1075H94.4819C96.5169 11.1075 98.1596 12.7687 98.1596 14.8266C98.1596 16.8845 96.5169 18.5457 94.4819 18.5457H93.256V97.886C93.256 98.5803 92.7166 99.1257 92.0301 99.1257H42.9942C42.3077 99.1257 41.7683 98.5803 41.7683 97.886V18.5457H40.5424C38.5074 18.5457 36.8647 16.8845 36.8647 14.8266C36.8647 12.7687 38.5074 11.1075 40.5424 11.1075ZM62.6085 89.2082C63.295 89.2082 63.8344 88.6627 63.8344 87.9685V80.5303C63.8344 79.8361 63.295 79.2906 62.6085 79.2906H50.3495C49.663 79.2906 49.1236 79.8361 49.1236 80.5303V87.9685C49.1236 88.6627 49.663 89.2082 50.3495 89.2082H62.6085ZM62.6085 69.3731C63.295 69.3731 63.8344 68.8276 63.8344 68.1334V60.6953C63.8344 60.001 63.295 59.4556 62.6085 59.4556H50.3495C49.663 59.4556 49.1236 60.001 49.1236 60.6953V68.1334C49.1236 68.8276 49.663 69.3731 50.3495 69.3731H62.6085ZM67.5121 19.7854C59.3967 19.7854 52.8013 26.4549 52.8013 34.6617C52.8013 42.8685 59.3722 49.538 67.5121 49.538C75.6276 49.538 82.2229 42.8685 82.2229 34.6617C82.2229 26.4549 75.6276 19.7854 67.5121 19.7854ZM84.6747 89.2082C85.3612 89.2082 85.9006 88.6627 85.9006 87.9685V80.5303C85.9006 79.8361 85.3612 79.2906 84.6747 79.2906H72.4157C71.7292 79.2906 71.1898 79.8361 71.1898 80.5303V87.9685C71.1898 88.6627 71.7292 89.2082 72.4157 89.2082H84.6747ZM84.6747 69.3731C85.3612 69.3731 85.9006 68.8276 85.9006 68.1334V60.6953C85.9006 60.001 85.3612 59.4556 84.6747 59.4556H72.4157C71.7292 59.4556 71.1898 60.001 71.1898 60.6953V68.1334C71.1898 68.8276 71.7292 69.3731 72.4157 69.3731H84.6747ZM19.6777 33.422C17.6427 33.422 16 31.7608 16 29.7029C16 27.645 17.6427 25.9839 19.6777 25.9839H35.6144V33.422H19.6777ZM70.8222 31.3145H75.4316C75.7993 31.3145 76.0936 31.6121 76.0936 31.984V37.3147C76.0936 37.6866 75.7993 37.9841 75.4316 37.9841H70.8222V42.6453C70.8222 43.0172 70.528 43.3148 70.1602 43.3148H64.8888C64.5211 43.3148 64.2269 43.0172 64.2269 42.6453V37.9841H59.6175C59.2497 37.9841 58.9555 37.6866 58.9555 37.3147V31.984C58.9555 31.6121 59.2497 31.3145 59.6175 31.3145H64.2269V26.6533C64.2269 26.2814 64.5211 25.9839 64.8888 25.9839H70.1602C70.528 25.9839 70.8222 26.2814 70.8222 26.6533V31.3145ZM19.6777 39.6205H34.3885C35.075 39.6205 35.6144 40.1659 35.6144 40.8602V49.538H25.8317C25.1452 49.538 24.6058 50.0835 24.6058 50.7777V58.2159C24.6058 58.9101 25.1452 59.4556 25.8317 59.4556H35.6144V69.3731H25.8317C25.1452 69.3731 24.6058 69.9186 24.6058 70.6128V78.051C24.6058 78.7452 25.1452 79.2906 25.8317 79.2906H35.6144V97.886C35.6144 98.5803 35.075 99.1257 34.3885 99.1257H19.6777C18.9912 99.1257 18.4518 98.5803 18.4518 97.886V40.8602C18.4518 40.1659 18.9912 39.6205 19.6777 39.6205ZM99.3856 25.9839H115.322C117.357 25.9839 119 27.645 119 29.7029C119 31.7608 117.357 33.422 115.322 33.422H99.3856V25.9839ZM100.612 39.6205H115.322C115.984 39.6205 116.548 40.1659 116.548 40.8602V97.886C116.548 98.5803 116.009 99.1257 115.322 99.1257H100.612C99.925 99.1257 99.3856 98.5803 99.3856 97.886V79.2906H109.193C109.879 79.2906 110.419 78.7452 110.419 78.051V70.6128C110.419 69.9186 109.879 69.3731 109.193 69.3731H99.3856V59.4556H109.193C109.879 59.4556 110.419 58.9101 110.419 58.2159V50.7777C110.419 50.0835 109.879 49.538 109.193 49.538H99.3856V40.8602C99.3856 40.1659 99.925 39.6205 100.612 39.6205Z" fill="#0067B9"/>
</g>
<defs>
<filter id="filter0_d_2_32" x="0" y="0.107544" width="135" height="120.018" filterUnits="userSpaceOnUse" color-interpolation-filters="sRGB">
<feFlood flood-opacity="0" result="BackgroundImageFix"/>
<feColorMatrix in="SourceAlpha" type="matrix" values="0 0 0 0 0 0 0 0 0 0 0 0 0 0 0 0 0 0 127 0" result="hardAlpha"/>
<feOffset dy="5"/>
<feGaussianBlur stdDeviation="8"/>
<feComposite in2="hardAlpha" operator="out"/>
<feColorMatrix type="matrix" values="0 0 0 0 0 0 0 0 0 0 0 0 0 0 0 0 0 0 0.2 0"/>
<feBlend mode="normal" in2="BackgroundImageFix" result="effect1_dropShadow_2_32"/>
<feBlend mode="normal" in="SourceGraphic" in2="effect1_dropShadow_2_32" result="shape"/>
</filter>
</defs>
</svg>
