<svg width="121" height="121" viewBox="0 0 121 121" fill="none" xmlns="http://www.w3.org/2000/svg">
<g filter="url(#filter0_d_2_35)">
<path fill-rule="evenodd" clip-rule="evenodd" d="M27.6366 61.485C28.6542 60.4674 30.298 60.4674 31.3157 61.485L53.4685 83.6118C54.4861 84.6294 54.4861 86.2733 53.4685 87.2909L46.9975 93.7619C39.7437 101.042 27.8714 100.911 20.7742 93.3705C13.9117 86.0906 14.6423 74.4793 21.7135 67.4081L27.6366 61.485ZM72.2815 16.8401C79.3526 9.76898 90.964 9.03838 98.2439 15.9008C105.785 22.9981 105.915 34.8703 98.6614 42.1241L92.1903 48.5952C91.1727 49.6128 89.5289 49.6128 88.5112 48.5952L66.3584 26.4423C65.3408 25.4247 65.3408 23.7809 66.3584 22.7632L72.2815 16.8401ZM61.7401 31.0349L83.893 53.1877C84.9106 54.2053 84.9106 55.8753 83.893 56.8668L61.7401 79.0196C60.7225 80.0373 59.0787 80.0373 58.061 79.0196L35.9082 56.8668C34.8906 55.8492 34.8906 54.2053 35.9082 53.1877L58.061 31.0349C59.0787 30.0172 60.7225 30.0172 61.7401 31.0349ZM44.2318 57.8061C45.7452 59.3456 48.224 59.3456 49.7635 57.8061C51.303 56.2667 51.303 53.7878 49.7635 52.2744C48.2501 50.735 45.7713 50.735 44.2318 52.2744C42.6923 53.7878 42.6923 56.2667 44.2318 57.8061ZM57.1478 70.7221C58.6612 72.2616 61.14 72.2616 62.6795 70.7221C64.2189 69.1826 64.2189 66.7038 62.6795 65.1904C61.1661 63.6509 58.6873 63.6509 57.1478 65.1904C55.6083 66.7038 55.6083 69.1826 57.1478 70.7221ZM57.1478 57.8061C58.6612 59.3456 61.14 59.3456 62.6795 57.8061C64.2189 56.2667 64.2189 53.7878 62.6795 52.2744C61.1661 50.735 58.6873 50.735 57.1478 52.2744C55.6083 53.7878 55.6083 56.2667 57.1478 57.8061ZM57.1478 44.8902C58.6612 46.4296 61.14 46.4296 62.6795 44.8902C64.2189 43.3507 64.2189 40.8719 62.6795 39.3585C61.1661 37.819 58.6873 37.819 57.1478 39.3585C55.6083 40.8719 55.6083 43.3507 57.1478 44.8902ZM70.0638 57.8061C71.5771 59.3456 74.056 59.3456 75.5954 57.8061C77.1349 56.2667 77.1349 53.7878 75.5954 52.2744C74.0821 50.735 71.6032 50.735 70.0638 52.2744C68.5243 53.7878 68.5243 56.2667 70.0638 57.8061Z" fill="#0067B9"/>
</g>
<defs>
<filter id="filter0_d_2_35" x="0" y="0.126648" width="120.003" height="119.999" filterUnits="userSpaceOnUse" color-interpolation-filters="sRGB">
<feFlood flood-opacity="0" result="BackgroundImageFix"/>
<feColorMatrix in="SourceAlpha" type="matrix" values="0 0 0 0 0 0 0 0 0 0 0 0 0 0 0 0 0 0 127 0" result="hardAlpha"/>
<feOffset dy="5"/>
<feGaussianBlur stdDeviation="8"/>
<feComposite in2="hardAlpha" operator="out"/>
<feColorMatrix type="matrix" values="0 0 0 0 0 0 0 0 0 0 0 0 0 0 0 0 0 0 0.2 0"/>
<feBlend mode="normal" in2="BackgroundImageFix" result="effect1_dropShadow_2_35"/>
<feBlend mode="normal" in="SourceGraphic" in2="effect1_dropShadow_2_35" result="shape"/>
</filter>
</defs>
</svg>
