<svg width="120" height="121" viewBox="0 0 120 121" fill="none" xmlns="http://www.w3.org/2000/svg">
<g filter="url(#filter0_d_2_29)">
<path fill-rule="evenodd" clip-rule="evenodd" d="M92.6149 12.1084L103 22.4947C104.334 23.8049 104.334 25.9489 103 27.2591C101.69 28.5693 99.546 28.5693 98.236 27.2591L97.0213 26.0441L88.6611 34.4056L80.7058 26.4491L89.066 18.0877L87.8513 16.8727C86.5413 15.5625 86.5413 13.4186 87.8513 12.1084C89.1613 10.7982 91.3049 10.7982 92.6149 12.1084ZM68.7017 21.1364L93.9718 46.4103C94.4244 46.8867 94.4244 47.6252 93.948 48.0778L88.8988 53.1278C88.4224 53.6042 87.6841 53.6042 87.2077 53.1278L83.9448 49.8643L48.1712 85.6432C44.7177 89.0972 39.2874 89.3116 35.548 86.3578L34.381 87.525C33.595 88.3349 32.4042 88.4064 31.4753 87.8347L21.0671 98.2444C20.4955 98.8399 19.7334 99.1257 18.9712 99.1257C18.2091 99.1257 17.4469 98.8161 16.8753 98.2444C15.7082 97.0771 15.7082 95.1953 16.8753 94.0281L27.2834 83.6184C26.7356 82.7132 26.8071 81.4983 27.5931 80.7123L28.7601 79.545C25.8068 75.8052 26.0211 70.374 29.4746 66.92L65.2244 31.1412L61.9614 27.8777C61.4851 27.4013 61.4851 26.6628 61.9614 26.1864L67.0107 21.1364C67.487 20.66 68.2254 20.66 68.7017 21.1364ZM37.9059 75.2811L44.3366 68.8495C45.4798 67.6823 45.4798 65.8004 44.3604 64.6332C43.1934 63.466 41.3118 63.466 40.1448 64.6332L33.7141 71.0648C32.5471 72.2321 32.5471 74.1139 33.7141 75.2811C34.2857 75.8766 35.0479 76.1625 35.81 76.1625C36.5722 76.1625 37.3343 75.8528 37.9059 75.2811ZM51.6009 61.5365L53.8159 59.345C54.9829 58.2016 54.9829 56.2959 53.8397 55.1287C52.6727 53.9615 50.7911 53.9615 49.6241 55.1287L47.409 57.3202C46.242 58.4874 46.242 60.3693 47.409 61.5365C47.9807 62.132 48.7428 62.4179 49.505 62.4179C50.2671 62.4179 51.0293 62.1082 51.6009 61.5365ZM56.4596 48.3398L71.3454 54.0568L77.9904 47.4346L67.6776 37.1202L56.4596 48.3398Z" fill="#0067B9"/>
</g>
<defs>
<filter id="filter0_d_2_29" x="0" y="0.125732" width="120" height="120" filterUnits="userSpaceOnUse" color-interpolation-filters="sRGB">
<feFlood flood-opacity="0" result="BackgroundImageFix"/>
<feColorMatrix in="SourceAlpha" type="matrix" values="0 0 0 0 0 0 0 0 0 0 0 0 0 0 0 0 0 0 127 0" result="hardAlpha"/>
<feOffset dy="5"/>
<feGaussianBlur stdDeviation="8"/>
<feComposite in2="hardAlpha" operator="out"/>
<feColorMatrix type="matrix" values="0 0 0 0 0 0 0 0 0 0 0 0 0 0 0 0 0 0 0.2 0"/>
<feBlend mode="normal" in2="BackgroundImageFix" result="effect1_dropShadow_2_29"/>
<feBlend mode="normal" in="SourceGraphic" in2="effect1_dropShadow_2_29" result="shape"/>
</filter>
</defs>
</svg>
